<svg width="363" height="218" viewBox="0 0 363 218" fill="none" xmlns="http://www.w3.org/2000/svg">
<path d="M214.5 44.119L283.566 174.53H145.434L214.5 44.119Z" fill="black"/>
<path d="M145.75 173.881L214.816 43.4702H76.6845L145.75 173.881Z" fill="black"/>
<path d="M283.25 173.881L352.316 43.4702H214.184L283.25 173.881Z" fill="black"/>
<path d="M0 43.4937H35.75H72.875H145.75V174.341H72.875H0V43.4937Z" fill="black"/>
<path d="M87.3435 131.64C87.1728 131.64 86.9808 131.576 86.7675 131.448C86.5542 131.32 86.4048 131.043 86.3195 130.616L76.2075 90.04C75.9088 88.8453 75.5675 88.0133 75.1835 87.544C74.8422 87.0747 74.2448 86.7547 73.3915 86.584L72.4315 86.392C71.8342 86.264 71.5355 85.9867 71.5355 85.56C71.5355 85.1333 71.8555 84.92 72.4955 84.92H83.4395C84.0368 84.92 84.3355 85.1547 84.3355 85.624C84.3355 86.0933 83.9728 86.3493 83.2475 86.392L82.0315 86.52C81.3062 86.5627 80.8368 86.7973 80.6235 87.224C80.4528 87.608 80.4742 88.2693 80.6875 89.208L88.1115 119.992C88.1968 120.248 88.3248 120.376 88.4955 120.376C88.7088 120.376 88.8368 120.248 88.8795 119.992L96.2395 90.552C96.8368 88.12 96.1968 86.776 94.3195 86.52L93.3595 86.392C92.6342 86.264 92.2715 86.008 92.2715 85.624C92.2715 85.1547 92.5702 84.92 93.1675 84.92H102.128C102.768 84.92 103.088 85.1333 103.088 85.56C103.088 85.9867 102.789 86.264 102.192 86.392L101.232 86.584C100.421 86.7547 99.7808 87.1813 99.3115 87.864C98.8848 88.504 98.5222 89.4213 98.2235 90.616L88.3035 130.616C88.2182 131.043 88.0688 131.32 87.8555 131.448C87.6848 131.576 87.5142 131.64 87.3435 131.64ZM103.114 131C102.474 131 102.154 130.765 102.154 130.296C102.154 129.912 102.431 129.656 102.986 129.528L104.458 129.272C105.354 129.101 105.93 128.867 106.186 128.568C106.484 128.269 106.634 127.672 106.634 126.776V89.144C106.634 88.248 106.484 87.6507 106.186 87.352C105.93 87.0533 105.354 86.8187 104.458 86.648L102.986 86.392C102.431 86.264 102.154 86.008 102.154 85.624C102.154 85.1547 102.474 84.92 103.114 84.92H114.698C115.338 84.92 115.658 85.1547 115.658 85.624C115.658 86.008 115.38 86.264 114.826 86.392L113.354 86.648C112.458 86.8187 111.86 87.0533 111.562 87.352C111.306 87.6507 111.178 88.248 111.178 89.144V126.776C111.178 127.672 111.306 128.269 111.562 128.568C111.86 128.867 112.458 129.101 113.354 129.272L114.826 129.528C115.38 129.656 115.658 129.912 115.658 130.296C115.658 130.765 115.338 131 114.698 131H103.114ZM128.651 131.576C127.798 131.576 126.838 131.491 125.771 131.32C124.747 131.149 123.766 130.936 122.827 130.68C121.931 130.424 121.227 130.147 120.715 129.848C120.416 129.677 120.182 129.507 120.011 129.336C119.883 129.123 119.819 128.781 119.819 128.312L119.499 118.264C119.499 117.411 119.776 116.984 120.331 116.984C120.8 116.984 121.12 117.368 121.291 118.136L121.867 120.568C123.318 126.669 126.027 129.72 129.995 129.72C132.128 129.72 133.814 129.016 135.051 127.608C136.331 126.157 136.971 124.131 136.971 121.528C136.971 119.011 136.31 116.664 134.987 114.488C133.707 112.312 131.638 110.157 128.779 108.024C125.622 105.763 123.318 103.587 121.867 101.496C120.416 99.3627 119.691 97.1013 119.691 94.712C119.691 91.5547 120.779 89.0373 122.955 87.16C125.174 85.24 127.99 84.28 131.403 84.28C132.683 84.28 133.92 84.4293 135.115 84.728C136.31 85.0267 137.291 85.4533 138.059 86.008C138.315 86.1787 138.507 86.3707 138.635 86.584C138.806 86.7973 138.891 87.0747 138.891 87.416L139.083 97.08C139.083 97.8053 138.806 98.168 138.251 98.168C137.867 98.168 137.59 97.8693 137.419 97.272L136.971 95.672C136.032 92.3867 135.051 89.9973 134.027 88.504C133.046 86.968 131.616 86.2 129.739 86.2C127.904 86.2 126.432 86.7973 125.323 87.992C124.256 89.1867 123.723 90.872 123.723 93.048C123.723 94.8827 124.32 96.632 125.515 98.296C126.71 99.96 128.8 101.987 131.787 104.376C134.987 106.979 137.312 109.496 138.763 111.928C140.256 114.317 141.003 116.877 141.003 119.608C141.003 121.997 140.47 124.088 139.403 125.88C138.336 127.672 136.864 129.08 134.987 130.104C133.152 131.085 131.04 131.576 128.651 131.576ZM160.038 131.576C157.734 131.576 155.686 131.043 153.894 129.976C152.144 128.867 150.779 127.352 149.798 125.432C148.816 123.469 148.326 121.229 148.326 118.712V89.144C148.326 88.248 148.176 87.6507 147.878 87.352C147.622 87.0533 147.046 86.8187 146.15 86.648L144.678 86.392C144.123 86.264 143.846 86.008 143.846 85.624C143.846 85.1547 144.166 84.92 144.806 84.92H156.518C157.158 84.92 157.478 85.176 157.478 85.688C157.478 86.072 157.243 86.3067 156.774 86.392L155.046 86.648C154.192 86.776 153.616 87.0107 153.318 87.352C153.019 87.6933 152.87 88.312 152.87 89.208V118.776C152.87 122.019 153.595 124.536 155.046 126.328C156.496 128.12 158.523 129.016 161.126 129.016C163.771 129.016 165.819 128.12 167.27 126.328C168.72 124.536 169.446 122.019 169.446 118.776V90.488C169.446 88.184 168.72 86.904 167.27 86.648L165.542 86.392C165.072 86.3067 164.838 86.072 164.838 85.688C164.838 85.176 165.158 84.92 165.798 84.92H175.014C175.654 84.92 175.974 85.1547 175.974 85.624C175.974 86.008 175.696 86.264 175.142 86.392L173.67 86.648C172.219 86.904 171.494 88.1627 171.494 90.424V118.712C171.494 122.595 170.448 125.709 168.358 128.056C166.267 130.403 163.494 131.576 160.038 131.576ZM196.91 130.36C196.739 130.36 196.547 130.296 196.334 130.168C196.121 130.04 195.971 129.763 195.886 129.336L186.222 90.104C186.179 89.8053 186.051 89.6773 185.838 89.72C185.625 89.72 185.518 89.8693 185.518 90.168L184.238 125.496C184.195 126.691 184.387 127.608 184.814 128.248C185.241 128.845 185.987 129.229 187.054 129.4L187.886 129.528C188.441 129.571 188.718 129.827 188.718 130.296C188.718 130.765 188.398 131 187.758 131H178.606C177.966 131 177.646 130.765 177.646 130.296C177.646 129.827 177.923 129.571 178.478 129.528L179.31 129.4C180.419 129.229 181.166 128.845 181.55 128.248C181.977 127.608 182.211 126.691 182.254 125.496L183.534 89.144C183.577 88.248 183.449 87.6507 183.15 87.352C182.851 87.0533 182.211 86.8187 181.23 86.648L179.758 86.392C179.203 86.264 178.926 86.008 178.926 85.624C178.926 85.1547 179.246 84.92 179.886 84.92H187.566C188.889 84.92 189.699 85.56 189.998 86.84L197.742 118.776C197.827 119.075 197.955 119.224 198.126 119.224C198.339 119.224 198.467 119.075 198.51 118.776L206.574 86.52C206.83 85.4533 207.513 84.92 208.622 84.92H216.174C216.814 84.92 217.134 85.1547 217.134 85.624C217.134 86.008 216.857 86.264 216.302 86.392L214.83 86.648C213.934 86.8187 213.337 87.0533 213.038 87.352C212.739 87.6507 212.611 88.248 212.654 89.144L213.934 126.776C213.977 127.672 214.126 128.269 214.382 128.568C214.638 128.867 215.214 129.101 216.11 129.272L217.582 129.528C218.137 129.656 218.414 129.912 218.414 130.296C218.414 130.765 218.094 131 217.454 131H205.87C205.23 131 204.91 130.765 204.91 130.296C204.91 129.912 205.187 129.656 205.742 129.528L207.214 129.272C208.11 129.101 208.707 128.867 209.006 128.568C209.305 128.269 209.433 127.672 209.39 126.776L208.302 90.168C208.302 89.8693 208.195 89.72 207.982 89.72C207.811 89.6773 207.683 89.784 207.598 90.04L197.87 129.336C197.785 129.763 197.635 130.04 197.422 130.168C197.251 130.296 197.081 130.36 196.91 130.36Z" fill="white"/>
<path d="M77.0695 145C76.9695 145 76.9195 144.963 76.9195 144.89C76.9195 144.83 76.9628 144.79 77.0495 144.77L77.2795 144.73C77.4195 144.703 77.5095 144.667 77.5495 144.62C77.5962 144.573 77.6195 144.48 77.6195 144.34V138.46C77.6195 138.32 77.5962 138.227 77.5495 138.18C77.5095 138.133 77.4195 138.097 77.2795 138.07L77.0495 138.03C76.9628 138.01 76.9195 137.97 76.9195 137.91C76.9195 137.837 76.9695 137.8 77.0695 137.8H78.8795C78.9795 137.8 79.0295 137.837 79.0295 137.91C79.0295 137.97 78.9862 138.01 78.8995 138.03L78.6695 138.07C78.5295 138.097 78.4362 138.133 78.3895 138.18C78.3495 138.227 78.3295 138.32 78.3295 138.46V144.34C78.3295 144.48 78.3495 144.573 78.3895 144.62C78.4362 144.667 78.5295 144.703 78.6695 144.73L78.8995 144.77C78.9862 144.79 79.0295 144.83 79.0295 144.89C79.0295 144.963 78.9795 145 78.8795 145H77.0695ZM79.5197 145C79.4197 145 79.3697 144.963 79.3697 144.89C79.3697 144.83 79.4131 144.79 79.4997 144.77L79.6197 144.75C79.7597 144.723 79.8497 144.683 79.8897 144.63C79.9364 144.57 79.9597 144.47 79.9597 144.33V140.97C79.9597 140.85 79.9397 140.77 79.8997 140.73C79.8664 140.683 79.8031 140.653 79.7097 140.64L79.4997 140.61C79.4131 140.603 79.3697 140.567 79.3697 140.5C79.3697 140.447 79.4231 140.41 79.5297 140.39C79.7364 140.357 79.8931 140.303 79.9997 140.23C80.1131 140.157 80.2297 140.067 80.3497 139.96C80.4097 139.9 80.4597 139.87 80.4997 139.87C80.5597 139.87 80.5897 139.91 80.5897 139.99V140.44C80.5897 140.5 80.6097 140.54 80.6497 140.56C80.6964 140.573 80.7464 140.553 80.7997 140.5C81.0664 140.247 81.2997 140.073 81.4997 139.98C81.7064 139.887 81.9231 139.84 82.1497 139.84C82.4497 139.84 82.6897 139.947 82.8697 140.16C83.0497 140.367 83.1397 140.673 83.1397 141.08V144.33C83.1397 144.47 83.1597 144.57 83.1997 144.63C83.2464 144.683 83.3397 144.72 83.4797 144.74L83.6997 144.77C83.7731 144.783 83.8097 144.823 83.8097 144.89C83.8097 144.963 83.7697 145 83.6897 145H82.0097C81.9164 145 81.8697 144.963 81.8697 144.89C81.8697 144.823 81.9064 144.783 81.9797 144.77L82.1197 144.75C82.2597 144.73 82.3497 144.69 82.3897 144.63C82.4364 144.57 82.4597 144.47 82.4597 144.33V141.19C82.4597 140.863 82.3997 140.633 82.2797 140.5C82.1597 140.367 81.9897 140.3 81.7697 140.3C81.5564 140.3 81.3631 140.363 81.1897 140.49C81.0231 140.61 80.8897 140.773 80.7897 140.98C80.6897 141.18 80.6397 141.403 80.6397 141.65V144.33C80.6397 144.47 80.6597 144.57 80.6997 144.63C80.7464 144.69 80.8397 144.727 80.9797 144.74L81.2497 144.77C81.3231 144.783 81.3597 144.82 81.3597 144.88C81.3597 144.96 81.3097 145 81.2097 145H79.5197ZM85.387 145.09C85.1537 145.09 84.9603 145.01 84.807 144.85C84.6603 144.683 84.587 144.413 84.587 144.04V140.3C84.587 140.22 84.547 140.18 84.467 140.18H84.177C84.0703 140.18 84.017 140.14 84.017 140.06C84.017 140.007 84.047 139.96 84.107 139.92C84.327 139.767 84.5037 139.603 84.637 139.43C84.7703 139.25 84.887 139.007 84.987 138.7C85.0337 138.56 85.0903 138.49 85.157 138.49C85.2303 138.49 85.267 138.543 85.267 138.65V139.76C85.267 139.853 85.3137 139.9 85.407 139.9H86.057C86.1637 139.9 86.217 139.947 86.217 140.04C86.217 140.133 86.1637 140.18 86.057 140.18H85.407C85.3137 140.18 85.267 140.227 85.267 140.32V144.05C85.267 144.197 85.2903 144.313 85.337 144.4C85.3837 144.48 85.4703 144.52 85.597 144.52C85.737 144.52 85.8503 144.45 85.937 144.31C86.0303 144.17 86.0903 143.943 86.117 143.63C86.1303 143.537 86.1737 143.49 86.247 143.49C86.327 143.49 86.367 143.54 86.367 143.64C86.347 144.153 86.2403 144.523 86.047 144.75C85.8603 144.977 85.6403 145.09 85.387 145.09ZM88.4249 145.09C88.1049 145.09 87.8182 144.983 87.5649 144.77C87.3115 144.557 87.1082 144.257 86.9549 143.87C86.8082 143.477 86.7349 143.023 86.7349 142.51C86.7349 141.983 86.8115 141.52 86.9649 141.12C87.1182 140.72 87.3282 140.407 87.5949 140.18C87.8615 139.953 88.1582 139.84 88.4849 139.84C88.8782 139.84 89.1949 140.003 89.4349 140.33C89.6815 140.65 89.8049 141.173 89.8049 141.9C89.8049 142.12 89.7215 142.23 89.5549 142.23H87.6549C87.5215 142.23 87.4549 142.307 87.4549 142.46C87.4549 143.167 87.5582 143.697 87.7649 144.05C87.9715 144.403 88.2349 144.58 88.5549 144.58C88.8082 144.58 89.0149 144.49 89.1749 144.31C89.3349 144.13 89.4649 143.827 89.5649 143.4C89.5849 143.327 89.6282 143.29 89.6949 143.29C89.7749 143.29 89.8049 143.357 89.7849 143.49C89.6782 144.083 89.5082 144.5 89.2749 144.74C89.0415 144.973 88.7582 145.09 88.4249 145.09ZM87.6249 141.98H88.6349C88.9549 141.98 89.1149 141.813 89.1149 141.48C89.1149 141.047 89.0615 140.707 88.9549 140.46C88.8482 140.213 88.6882 140.09 88.4749 140.09C88.2149 140.09 87.9949 140.24 87.8149 140.54C87.6415 140.84 87.5282 141.267 87.4749 141.82C87.4615 141.927 87.5115 141.98 87.6249 141.98ZM91.5996 140.54C91.8729 140.073 92.2029 139.84 92.5896 139.84C92.8096 139.84 92.9729 139.907 93.0796 140.04C93.1862 140.167 93.2396 140.31 93.2396 140.47C93.2396 140.597 93.2062 140.7 93.1396 140.78C93.0796 140.86 92.9829 140.9 92.8496 140.9C92.7429 140.9 92.6629 140.877 92.6096 140.83C92.5629 140.777 92.5229 140.717 92.4896 140.65C92.4629 140.583 92.4296 140.527 92.3896 140.48C92.3496 140.427 92.2829 140.4 92.1896 140.4C92.0696 140.4 91.9562 140.473 91.8496 140.62C91.7429 140.76 91.6529 140.95 91.5796 141.19C91.5129 141.43 91.4796 141.703 91.4796 142.01V144.33C91.4796 144.47 91.4996 144.57 91.5396 144.63C91.5862 144.69 91.6796 144.727 91.8196 144.74L92.0896 144.77C92.1629 144.783 92.1996 144.82 92.1996 144.88C92.1996 144.96 92.1496 145 92.0496 145H90.3596C90.2596 145 90.2096 144.963 90.2096 144.89C90.2096 144.83 90.2529 144.79 90.3396 144.77L90.4596 144.75C90.5996 144.723 90.6896 144.683 90.7296 144.63C90.7762 144.57 90.7996 144.47 90.7996 144.33V140.97C90.7996 140.85 90.7796 140.77 90.7396 140.73C90.7062 140.683 90.6429 140.653 90.5496 140.64L90.3396 140.61C90.2529 140.603 90.2096 140.567 90.2096 140.5C90.2096 140.447 90.2629 140.41 90.3696 140.39C90.5762 140.357 90.7329 140.303 90.8396 140.23C90.9529 140.157 91.0696 140.067 91.1896 139.96C91.2496 139.9 91.2996 139.87 91.3396 139.87C91.3996 139.87 91.4296 139.91 91.4296 139.99V140.53C91.4296 140.577 91.4496 140.607 91.4896 140.62C91.5296 140.627 91.5662 140.6 91.5996 140.54ZM94.2674 145.09C93.9874 145.09 93.7574 145.003 93.5774 144.83C93.3974 144.65 93.3074 144.413 93.3074 144.12C93.3074 143.833 93.3974 143.563 93.5774 143.31C93.7574 143.05 94.004 142.817 94.3174 142.61C94.6307 142.403 94.9874 142.237 95.3874 142.11C95.474 142.083 95.5174 142.027 95.5174 141.94V141.03C95.5174 140.71 95.4674 140.483 95.3674 140.35C95.2674 140.21 95.1307 140.14 94.9574 140.14C94.7907 140.14 94.6374 140.217 94.4974 140.37C94.364 140.517 94.2674 140.767 94.2074 141.12C94.174 141.333 94.1007 141.49 93.9874 141.59C93.8807 141.683 93.7707 141.73 93.6574 141.73C93.4707 141.73 93.3774 141.637 93.3774 141.45C93.3774 141.257 93.4307 141.067 93.5374 140.88C93.6507 140.687 93.7974 140.513 93.9774 140.36C94.1574 140.2 94.354 140.073 94.5674 139.98C94.7807 139.887 94.994 139.84 95.2074 139.84C95.8674 139.84 96.1974 140.223 96.1974 140.99V144.05C96.1974 144.33 96.2674 144.47 96.4074 144.47C96.494 144.47 96.574 144.413 96.6474 144.3C96.7207 144.18 96.7574 143.98 96.7574 143.7C96.7574 143.593 96.8007 143.54 96.8874 143.54C96.9674 143.54 97.0074 143.597 97.0074 143.71C97.0074 144.197 96.9207 144.55 96.7474 144.77C96.5807 144.983 96.3907 145.09 96.1774 145.09C96.0174 145.09 95.8907 145.027 95.7974 144.9C95.704 144.767 95.6407 144.61 95.6074 144.43C95.6007 144.363 95.5707 144.33 95.5174 144.33C95.4707 144.323 95.424 144.353 95.3774 144.42C95.2174 144.64 95.054 144.807 94.8874 144.92C94.7207 145.033 94.514 145.09 94.2674 145.09ZM94.5374 144.63C94.7107 144.63 94.8707 144.57 95.0174 144.45C95.164 144.323 95.284 144.157 95.3774 143.95C95.4707 143.743 95.5174 143.51 95.5174 143.25V142.52C95.5174 142.393 95.4474 142.357 95.3074 142.41C94.9007 142.557 94.584 142.76 94.3574 143.02C94.1374 143.273 94.0274 143.58 94.0274 143.94C94.0274 144.4 94.1974 144.63 94.5374 144.63ZM98.8615 145.09C98.5682 145.09 98.3015 144.993 98.0615 144.8C97.8282 144.6 97.6415 144.317 97.5015 143.95C97.3615 143.583 97.2915 143.147 97.2915 142.64C97.2915 142.073 97.3749 141.58 97.5415 141.16C97.7149 140.74 97.9482 140.417 98.2415 140.19C98.5349 139.957 98.8615 139.84 99.2215 139.84C99.5282 139.84 99.7682 139.9 99.9415 140.02C100.008 140.067 100.042 140.14 100.042 140.24L100.062 141.46C100.062 141.56 100.022 141.61 99.9415 141.61C99.8682 141.61 99.8215 141.567 99.8015 141.48C99.7082 141.113 99.6182 140.83 99.5315 140.63C99.4449 140.43 99.3549 140.293 99.2615 140.22C99.1682 140.14 99.0649 140.1 98.9515 140.1C98.8182 140.1 98.6782 140.177 98.5315 140.33C98.3915 140.483 98.2715 140.733 98.1715 141.08C98.0782 141.42 98.0315 141.87 98.0315 142.43C98.0315 143.143 98.1215 143.68 98.3015 144.04C98.4882 144.4 98.7282 144.58 99.0215 144.58C99.2549 144.58 99.4482 144.483 99.6015 144.29C99.7615 144.097 99.8982 143.747 100.012 143.24C100.032 143.167 100.072 143.13 100.132 143.13C100.212 143.13 100.242 143.197 100.222 143.33C100.148 143.797 100.045 144.16 99.9115 144.42C99.7849 144.673 99.6315 144.85 99.4515 144.95C99.2782 145.043 99.0815 145.09 98.8615 145.09ZM101.92 145.09C101.687 145.09 101.494 145.01 101.34 144.85C101.194 144.683 101.12 144.413 101.12 144.04V140.3C101.12 140.22 101.08 140.18 101 140.18H100.71C100.604 140.18 100.55 140.14 100.55 140.06C100.55 140.007 100.58 139.96 100.64 139.92C100.86 139.767 101.037 139.603 101.17 139.43C101.304 139.25 101.42 139.007 101.52 138.7C101.567 138.56 101.624 138.49 101.69 138.49C101.764 138.49 101.8 138.543 101.8 138.65V139.76C101.8 139.853 101.847 139.9 101.94 139.9H102.59C102.697 139.9 102.75 139.947 102.75 140.04C102.75 140.133 102.697 140.18 102.59 140.18H101.94C101.847 140.18 101.8 140.227 101.8 140.32V144.05C101.8 144.197 101.824 144.313 101.87 144.4C101.917 144.48 102.004 144.52 102.13 144.52C102.27 144.52 102.384 144.45 102.47 144.31C102.564 144.17 102.624 143.943 102.65 143.63C102.664 143.537 102.707 143.49 102.78 143.49C102.86 143.49 102.9 143.54 102.9 143.64C102.88 144.153 102.774 144.523 102.58 144.75C102.394 144.977 102.174 145.09 101.92 145.09ZM104.178 138.95C104.038 138.95 103.918 138.9 103.818 138.8C103.725 138.7 103.678 138.573 103.678 138.42C103.678 138.267 103.725 138.143 103.818 138.05C103.918 137.95 104.038 137.9 104.178 137.9C104.318 137.9 104.435 137.95 104.528 138.05C104.621 138.143 104.668 138.267 104.668 138.42C104.668 138.573 104.621 138.7 104.528 138.8C104.435 138.9 104.318 138.95 104.178 138.95ZM103.338 145C103.238 145 103.188 144.963 103.188 144.89C103.188 144.83 103.231 144.79 103.318 144.77L103.438 144.75C103.605 144.723 103.711 144.683 103.758 144.63C103.805 144.57 103.828 144.47 103.828 144.33V140.97C103.828 140.85 103.808 140.77 103.768 140.73C103.735 140.683 103.671 140.653 103.578 140.64L103.368 140.61C103.281 140.603 103.238 140.567 103.238 140.5C103.238 140.447 103.291 140.41 103.398 140.39C103.605 140.357 103.771 140.303 103.898 140.23C104.025 140.157 104.148 140.067 104.268 139.96C104.328 139.9 104.378 139.87 104.418 139.87C104.478 139.87 104.508 139.91 104.508 139.99V144.33C104.508 144.47 104.528 144.57 104.568 144.63C104.608 144.69 104.685 144.727 104.798 144.74L105.048 144.77C105.121 144.783 105.158 144.82 105.158 144.88C105.158 144.96 105.108 145 105.008 145H103.338ZM107.205 145.09C107.145 145.09 107.101 145.053 107.075 144.98L105.745 140.57C105.698 140.41 105.651 140.307 105.605 140.26C105.565 140.213 105.498 140.18 105.405 140.16L105.255 140.13C105.168 140.11 105.125 140.067 105.125 140C105.125 139.933 105.171 139.9 105.265 139.9H106.915C107.008 139.9 107.055 139.933 107.055 140C107.055 140.073 107.011 140.117 106.925 140.13L106.765 140.15C106.605 140.17 106.505 140.21 106.465 140.27C106.425 140.323 106.425 140.423 106.465 140.57L107.295 143.46C107.315 143.533 107.348 143.57 107.395 143.57C107.441 143.57 107.475 143.533 107.495 143.46L108.305 140.75C108.358 140.57 108.371 140.437 108.345 140.35C108.325 140.257 108.231 140.197 108.065 140.17L107.855 140.13C107.768 140.11 107.725 140.067 107.725 140C107.725 139.933 107.771 139.9 107.865 139.9H109.135C109.228 139.9 109.275 139.937 109.275 140.01C109.275 140.077 109.235 140.123 109.155 140.15L109.065 140.18C108.965 140.213 108.878 140.273 108.805 140.36C108.738 140.447 108.671 140.597 108.605 140.81L107.335 144.98C107.308 145.053 107.265 145.09 107.205 145.09ZM110.993 145.09C110.673 145.09 110.387 144.983 110.133 144.77C109.88 144.557 109.677 144.257 109.523 143.87C109.377 143.477 109.303 143.023 109.303 142.51C109.303 141.983 109.38 141.52 109.533 141.12C109.687 140.72 109.897 140.407 110.163 140.18C110.43 139.953 110.727 139.84 111.053 139.84C111.447 139.84 111.763 140.003 112.003 140.33C112.25 140.65 112.373 141.173 112.373 141.9C112.373 142.12 112.29 142.23 112.123 142.23H110.223C110.09 142.23 110.023 142.307 110.023 142.46C110.023 143.167 110.127 143.697 110.333 144.05C110.54 144.403 110.803 144.58 111.123 144.58C111.377 144.58 111.583 144.49 111.743 144.31C111.903 144.13 112.033 143.827 112.133 143.4C112.153 143.327 112.197 143.29 112.263 143.29C112.343 143.29 112.373 143.357 112.353 143.49C112.247 144.083 112.077 144.5 111.843 144.74C111.61 144.973 111.327 145.09 110.993 145.09ZM110.193 141.98H111.203C111.523 141.98 111.683 141.813 111.683 141.48C111.683 141.047 111.63 140.707 111.523 140.46C111.417 140.213 111.257 140.09 111.043 140.09C110.783 140.09 110.563 140.24 110.383 140.54C110.21 140.84 110.097 141.267 110.043 141.82C110.03 141.927 110.08 141.98 110.193 141.98ZM116.167 145.09C116.034 145.09 115.884 145.077 115.717 145.05C115.557 145.023 115.404 144.99 115.257 144.95C115.117 144.91 115.007 144.867 114.927 144.82C114.88 144.793 114.844 144.767 114.817 144.74C114.797 144.707 114.787 144.653 114.787 144.58L114.737 143.01C114.737 142.877 114.78 142.81 114.867 142.81C114.94 142.81 114.99 142.87 115.017 142.99L115.107 143.37C115.334 144.323 115.757 144.8 116.377 144.8C116.71 144.8 116.974 144.69 117.167 144.47C117.367 144.243 117.467 143.927 117.467 143.52C117.467 143.127 117.364 142.76 117.157 142.42C116.957 142.08 116.634 141.743 116.187 141.41C115.694 141.057 115.334 140.717 115.107 140.39C114.88 140.057 114.767 139.703 114.767 139.33C114.767 138.837 114.937 138.443 115.277 138.15C115.624 137.85 116.064 137.7 116.597 137.7C116.797 137.7 116.99 137.723 117.177 137.77C117.364 137.817 117.517 137.883 117.637 137.97C117.677 137.997 117.707 138.027 117.727 138.06C117.754 138.093 117.767 138.137 117.767 138.19L117.797 139.7C117.797 139.813 117.754 139.87 117.667 139.87C117.607 139.87 117.564 139.823 117.537 139.73L117.467 139.48C117.32 138.967 117.167 138.593 117.007 138.36C116.854 138.12 116.63 138 116.337 138C116.05 138 115.82 138.093 115.647 138.28C115.48 138.467 115.397 138.73 115.397 139.07C115.397 139.357 115.49 139.63 115.677 139.89C115.864 140.15 116.19 140.467 116.657 140.84C117.157 141.247 117.52 141.64 117.747 142.02C117.98 142.393 118.097 142.793 118.097 143.22C118.097 143.593 118.014 143.92 117.847 144.2C117.68 144.48 117.45 144.7 117.157 144.86C116.87 145.013 116.54 145.09 116.167 145.09ZM119.034 147.05C118.854 147.05 118.711 146.987 118.604 146.86C118.497 146.74 118.444 146.6 118.444 146.44C118.444 146.313 118.481 146.207 118.554 146.12C118.627 146.033 118.727 145.99 118.854 145.99C118.961 145.99 119.037 146.013 119.084 146.06C119.131 146.107 119.164 146.16 119.184 146.22C119.204 146.28 119.224 146.333 119.244 146.38C119.264 146.427 119.304 146.45 119.364 146.45C119.437 146.45 119.504 146.397 119.564 146.29C119.624 146.19 119.707 145.973 119.814 145.64C119.881 145.44 119.921 145.267 119.934 145.12C119.954 144.973 119.951 144.817 119.924 144.65C119.904 144.483 119.854 144.28 119.774 144.04L118.684 140.57C118.637 140.41 118.591 140.307 118.544 140.26C118.504 140.213 118.437 140.18 118.344 140.16L118.194 140.13C118.107 140.11 118.064 140.067 118.064 140C118.064 139.933 118.111 139.9 118.204 139.9H119.854C119.947 139.9 119.994 139.933 119.994 140C119.994 140.073 119.951 140.117 119.864 140.13L119.704 140.15C119.544 140.17 119.441 140.21 119.394 140.27C119.354 140.323 119.357 140.423 119.404 140.57L120.284 143.5C120.304 143.567 120.334 143.6 120.374 143.6C120.421 143.6 120.454 143.567 120.474 143.5L121.324 140.75C121.377 140.57 121.391 140.437 121.364 140.35C121.344 140.257 121.251 140.197 121.084 140.17L120.874 140.13C120.787 140.11 120.744 140.067 120.744 140C120.744 139.933 120.791 139.9 120.884 139.9H122.154C122.247 139.9 122.294 139.937 122.294 140.01C122.294 140.077 122.254 140.123 122.174 140.15L122.084 140.18C121.984 140.213 121.901 140.273 121.834 140.36C121.767 140.447 121.697 140.597 121.624 140.81L120.134 145.46C119.987 145.927 119.854 146.273 119.734 146.5C119.621 146.727 119.511 146.873 119.404 146.94C119.297 147.013 119.174 147.05 119.034 147.05ZM123.411 145.09C123.257 145.09 123.094 145.07 122.921 145.03C122.747 144.997 122.607 144.953 122.501 144.9C122.441 144.867 122.411 144.81 122.411 144.73L122.381 143.61C122.381 143.497 122.424 143.44 122.511 143.44C122.584 143.44 122.634 143.493 122.661 143.6C122.774 144.073 122.911 144.397 123.071 144.57C123.237 144.743 123.437 144.83 123.671 144.83C123.864 144.83 124.024 144.757 124.151 144.61C124.277 144.457 124.341 144.247 124.341 143.98C124.341 143.713 124.267 143.477 124.121 143.27C123.974 143.063 123.727 142.837 123.381 142.59C123.034 142.357 122.781 142.123 122.621 141.89C122.461 141.65 122.381 141.39 122.381 141.11C122.381 140.73 122.514 140.423 122.781 140.19C123.047 139.957 123.401 139.84 123.841 139.84C123.974 139.84 124.104 139.857 124.231 139.89C124.357 139.917 124.471 139.963 124.571 140.03C124.631 140.07 124.661 140.123 124.661 140.19L124.681 141.29C124.681 141.39 124.641 141.44 124.561 141.44C124.514 141.44 124.481 141.427 124.461 141.4C124.441 141.367 124.424 141.327 124.411 141.28C124.277 140.847 124.144 140.547 124.011 140.38C123.877 140.207 123.714 140.12 123.521 140.12C123.347 140.12 123.204 140.18 123.091 140.3C122.977 140.42 122.921 140.57 122.921 140.75C122.921 140.983 122.991 141.187 123.131 141.36C123.271 141.533 123.524 141.747 123.891 142C124.224 142.24 124.474 142.5 124.641 142.78C124.814 143.053 124.901 143.353 124.901 143.68C124.901 144.107 124.764 144.45 124.491 144.71C124.217 144.963 123.857 145.09 123.411 145.09ZM126.647 145.09C126.413 145.09 126.22 145.01 126.067 144.85C125.92 144.683 125.847 144.413 125.847 144.04V140.3C125.847 140.22 125.807 140.18 125.727 140.18H125.437C125.33 140.18 125.277 140.14 125.277 140.06C125.277 140.007 125.307 139.96 125.367 139.92C125.587 139.767 125.763 139.603 125.897 139.43C126.03 139.25 126.147 139.007 126.247 138.7C126.293 138.56 126.35 138.49 126.417 138.49C126.49 138.49 126.527 138.543 126.527 138.65V139.76C126.527 139.853 126.573 139.9 126.667 139.9H127.317C127.423 139.9 127.477 139.947 127.477 140.04C127.477 140.133 127.423 140.18 127.317 140.18H126.667C126.573 140.18 126.527 140.227 126.527 140.32V144.05C126.527 144.197 126.55 144.313 126.597 144.4C126.643 144.48 126.73 144.52 126.857 144.52C126.997 144.52 127.11 144.45 127.197 144.31C127.29 144.17 127.35 143.943 127.377 143.63C127.39 143.537 127.433 143.49 127.507 143.49C127.587 143.49 127.627 143.54 127.627 143.64C127.607 144.153 127.5 144.523 127.307 144.75C127.12 144.977 126.9 145.09 126.647 145.09ZM129.685 145.09C129.365 145.09 129.078 144.983 128.825 144.77C128.571 144.557 128.368 144.257 128.215 143.87C128.068 143.477 127.995 143.023 127.995 142.51C127.995 141.983 128.071 141.52 128.225 141.12C128.378 140.72 128.588 140.407 128.855 140.18C129.121 139.953 129.418 139.84 129.745 139.84C130.138 139.84 130.455 140.003 130.695 140.33C130.941 140.65 131.065 141.173 131.065 141.9C131.065 142.12 130.981 142.23 130.815 142.23H128.915C128.781 142.23 128.715 142.307 128.715 142.46C128.715 143.167 128.818 143.697 129.025 144.05C129.231 144.403 129.495 144.58 129.815 144.58C130.068 144.58 130.275 144.49 130.435 144.31C130.595 144.13 130.725 143.827 130.825 143.4C130.845 143.327 130.888 143.29 130.955 143.29C131.035 143.29 131.065 143.357 131.045 143.49C130.938 144.083 130.768 144.5 130.535 144.74C130.301 144.973 130.018 145.09 129.685 145.09ZM128.885 141.98H129.895C130.215 141.98 130.375 141.813 130.375 141.48C130.375 141.047 130.321 140.707 130.215 140.46C130.108 140.213 129.948 140.09 129.735 140.09C129.475 140.09 129.255 140.24 129.075 140.54C128.901 140.84 128.788 141.267 128.735 141.82C128.721 141.927 128.771 141.98 128.885 141.98ZM131.619 145C131.519 145 131.469 144.963 131.469 144.89C131.469 144.83 131.513 144.79 131.599 144.77L131.719 144.75C131.859 144.723 131.949 144.683 131.989 144.63C132.036 144.57 132.059 144.47 132.059 144.33V140.97C132.059 140.85 132.039 140.77 131.999 140.73C131.966 140.683 131.903 140.653 131.809 140.64L131.599 140.61C131.513 140.603 131.469 140.567 131.469 140.5C131.469 140.447 131.523 140.41 131.629 140.39C131.836 140.357 131.993 140.303 132.099 140.23C132.213 140.157 132.329 140.067 132.449 139.96C132.509 139.9 132.559 139.87 132.599 139.87C132.659 139.87 132.689 139.91 132.689 139.99V140.44C132.689 140.487 132.709 140.523 132.749 140.55C132.789 140.57 132.833 140.557 132.879 140.51C133.153 140.25 133.389 140.073 133.589 139.98C133.796 139.887 134.003 139.84 134.209 139.84C134.403 139.84 134.573 139.893 134.719 140C134.873 140.1 134.986 140.253 135.059 140.46C135.079 140.513 135.113 140.547 135.159 140.56C135.213 140.567 135.263 140.547 135.309 140.5C135.583 140.247 135.819 140.073 136.019 139.98C136.219 139.887 136.423 139.84 136.629 139.84C136.909 139.84 137.136 139.947 137.309 140.16C137.489 140.367 137.579 140.673 137.579 141.08V144.33C137.579 144.47 137.599 144.57 137.639 144.63C137.686 144.683 137.779 144.72 137.919 144.74L138.139 144.77C138.213 144.783 138.249 144.823 138.249 144.89C138.249 144.963 138.209 145 138.129 145H136.419C136.326 145 136.279 144.963 136.279 144.89C136.279 144.823 136.316 144.783 136.389 144.77L136.529 144.75C136.683 144.73 136.783 144.69 136.829 144.63C136.876 144.57 136.899 144.47 136.899 144.33V141.19C136.899 140.863 136.839 140.633 136.719 140.5C136.606 140.367 136.449 140.3 136.249 140.3C136.049 140.3 135.866 140.363 135.699 140.49C135.539 140.61 135.409 140.773 135.309 140.98C135.209 141.18 135.159 141.403 135.159 141.65V144.33C135.159 144.47 135.183 144.57 135.229 144.63C135.276 144.683 135.373 144.72 135.519 144.74L135.739 144.77C135.813 144.783 135.849 144.823 135.849 144.89C135.849 144.963 135.809 145 135.729 145H134.029C133.936 145 133.889 144.963 133.889 144.89C133.889 144.823 133.926 144.783 133.999 144.77L134.139 144.75C134.279 144.73 134.369 144.69 134.409 144.63C134.456 144.57 134.479 144.47 134.479 144.33V141.19C134.479 140.863 134.419 140.633 134.299 140.5C134.186 140.367 134.029 140.3 133.829 140.3C133.629 140.3 133.446 140.363 133.279 140.49C133.119 140.61 132.989 140.773 132.889 140.98C132.789 141.18 132.739 141.403 132.739 141.65V144.33C132.739 144.47 132.759 144.57 132.799 144.63C132.846 144.69 132.939 144.727 133.079 144.74L133.349 144.77C133.423 144.783 133.459 144.82 133.459 144.88C133.459 144.96 133.409 145 133.309 145H131.619ZM140.4 145C140.3 145 140.25 144.963 140.25 144.89C140.25 144.83 140.293 144.79 140.38 144.77L140.61 144.73C140.75 144.703 140.84 144.667 140.88 144.62C140.926 144.573 140.95 144.48 140.95 144.34V138.46C140.95 138.32 140.926 138.227 140.88 138.18C140.84 138.133 140.75 138.097 140.61 138.07L140.38 138.03C140.293 138.01 140.25 137.97 140.25 137.91C140.25 137.837 140.3 137.8 140.4 137.8H143.62C143.773 137.8 143.856 137.877 143.87 138.03L143.95 139.69C143.963 139.803 143.92 139.86 143.82 139.86C143.74 139.86 143.693 139.817 143.68 139.73L143.63 139.4C143.576 139.053 143.483 138.783 143.35 138.59C143.216 138.397 143.066 138.26 142.9 138.18C142.733 138.093 142.573 138.05 142.42 138.05C142.126 138.05 141.926 138.097 141.82 138.19C141.713 138.283 141.66 138.427 141.66 138.62V140.98C141.66 141.073 141.706 141.12 141.8 141.12H142.15C142.443 141.12 142.623 140.963 142.69 140.65L142.8 140.15C142.82 140.063 142.87 140.02 142.95 140.02C143.03 140.02 143.07 140.077 143.07 140.19V142.44C143.07 142.553 143.03 142.61 142.95 142.61C142.87 142.61 142.82 142.567 142.8 142.48L142.69 141.99C142.643 141.757 142.576 141.603 142.49 141.53C142.41 141.457 142.293 141.42 142.14 141.42H141.8C141.706 141.42 141.66 141.467 141.66 141.56V144.29C141.66 144.43 141.68 144.53 141.72 144.59C141.766 144.643 141.86 144.68 142 144.7L142.47 144.77C142.543 144.783 142.58 144.82 142.58 144.88C142.58 144.96 142.53 145 142.43 145H140.4ZM145.713 145.09C145.373 145.09 145.066 144.977 144.793 144.75C144.526 144.517 144.313 144.2 144.153 143.8C143.993 143.4 143.913 142.953 143.913 142.46C143.913 141.967 143.993 141.523 144.153 141.13C144.313 140.737 144.529 140.423 144.803 140.19C145.076 139.957 145.379 139.84 145.713 139.84C146.053 139.84 146.356 139.957 146.623 140.19C146.896 140.423 147.113 140.737 147.273 141.13C147.433 141.523 147.513 141.967 147.513 142.46C147.513 142.953 147.433 143.4 147.273 143.8C147.119 144.2 146.906 144.517 146.633 144.75C146.359 144.977 146.053 145.09 145.713 145.09ZM145.713 144.84C146.406 144.84 146.753 144.047 146.753 142.46C146.753 140.88 146.406 140.09 145.713 140.09C145.019 140.09 144.673 140.88 144.673 142.46C144.673 144.047 145.019 144.84 145.713 144.84ZM149.305 140.54C149.578 140.073 149.908 139.84 150.295 139.84C150.515 139.84 150.678 139.907 150.785 140.04C150.891 140.167 150.945 140.31 150.945 140.47C150.945 140.597 150.911 140.7 150.845 140.78C150.785 140.86 150.688 140.9 150.555 140.9C150.448 140.9 150.368 140.877 150.315 140.83C150.268 140.777 150.228 140.717 150.195 140.65C150.168 140.583 150.135 140.527 150.095 140.48C150.055 140.427 149.988 140.4 149.895 140.4C149.775 140.4 149.661 140.473 149.555 140.62C149.448 140.76 149.358 140.95 149.285 141.19C149.218 141.43 149.185 141.703 149.185 142.01V144.33C149.185 144.47 149.205 144.57 149.245 144.63C149.291 144.69 149.385 144.727 149.525 144.74L149.795 144.77C149.868 144.783 149.905 144.82 149.905 144.88C149.905 144.96 149.855 145 149.755 145H148.065C147.965 145 147.915 144.963 147.915 144.89C147.915 144.83 147.958 144.79 148.045 144.77L148.165 144.75C148.305 144.723 148.395 144.683 148.435 144.63C148.481 144.57 148.505 144.47 148.505 144.33V140.97C148.505 140.85 148.485 140.77 148.445 140.73C148.411 140.683 148.348 140.653 148.255 140.64L148.045 140.61C147.958 140.603 147.915 140.567 147.915 140.5C147.915 140.447 147.968 140.41 148.075 140.39C148.281 140.357 148.438 140.303 148.545 140.23C148.658 140.157 148.775 140.067 148.895 139.96C148.955 139.9 149.005 139.87 149.045 139.87C149.105 139.87 149.135 139.91 149.135 139.99V140.53C149.135 140.577 149.155 140.607 149.195 140.62C149.235 140.627 149.271 140.6 149.305 140.54ZM153.917 145C153.817 145 153.767 144.963 153.767 144.89C153.767 144.817 153.811 144.777 153.897 144.77L154.347 144.7C154.481 144.68 154.571 144.647 154.617 144.6C154.664 144.547 154.687 144.45 154.687 144.31V141.95C154.687 141.803 154.654 141.66 154.587 141.52L153.117 138.44C153.071 138.327 153.017 138.24 152.957 138.18C152.897 138.12 152.811 138.077 152.697 138.05L152.607 138.03C152.514 138.01 152.467 137.967 152.467 137.9C152.467 137.833 152.517 137.8 152.617 137.8H154.327C154.421 137.8 154.467 137.837 154.467 137.91C154.467 137.983 154.411 138.023 154.297 138.03L154.107 138.05C153.994 138.057 153.914 138.093 153.867 138.16C153.821 138.227 153.831 138.33 153.897 138.47L155.127 141.09C155.154 141.137 155.187 141.16 155.227 141.16C155.267 141.16 155.301 141.137 155.327 141.09L156.507 138.68C156.594 138.507 156.614 138.367 156.567 138.26C156.527 138.147 156.431 138.08 156.277 138.06L156.057 138.03C155.944 138.01 155.887 137.97 155.887 137.91C155.887 137.837 155.934 137.8 156.027 137.8H157.447C157.547 137.8 157.597 137.833 157.597 137.9C157.597 137.967 157.551 138.01 157.457 138.03L157.357 138.05C157.264 138.07 157.181 138.127 157.107 138.22C157.041 138.313 156.951 138.47 156.837 138.69L155.527 141.32C155.481 141.413 155.447 141.503 155.427 141.59C155.407 141.67 155.397 141.763 155.397 141.87V144.31C155.397 144.45 155.421 144.547 155.467 144.6C155.521 144.647 155.611 144.68 155.737 144.7L156.187 144.77C156.274 144.777 156.317 144.817 156.317 144.89C156.317 144.963 156.267 145 156.167 145H153.917ZM158.662 145.09C158.322 145.09 158.015 144.977 157.742 144.75C157.475 144.517 157.262 144.2 157.102 143.8C156.942 143.4 156.862 142.953 156.862 142.46C156.862 141.967 156.942 141.523 157.102 141.13C157.262 140.737 157.479 140.423 157.752 140.19C158.025 139.957 158.329 139.84 158.662 139.84C159.002 139.84 159.305 139.957 159.572 140.19C159.845 140.423 160.062 140.737 160.222 141.13C160.382 141.523 160.462 141.967 160.462 142.46C160.462 142.953 160.382 143.4 160.222 143.8C160.069 144.2 159.855 144.517 159.582 144.75C159.309 144.977 159.002 145.09 158.662 145.09ZM158.662 144.84C159.355 144.84 159.702 144.047 159.702 142.46C159.702 140.88 159.355 140.09 158.662 140.09C157.969 140.09 157.622 140.88 157.622 142.46C157.622 144.047 157.969 144.84 158.662 144.84ZM162.424 145.09C162.257 145.09 162.097 145.053 161.944 144.98C161.791 144.907 161.664 144.79 161.564 144.63C161.464 144.47 161.414 144.257 161.414 143.99V140.51C161.414 140.39 161.394 140.307 161.354 140.26C161.321 140.213 161.257 140.187 161.164 140.18L160.994 140.16C160.881 140.147 160.824 140.103 160.824 140.03C160.824 139.943 160.887 139.9 161.014 139.9H161.944C162.044 139.9 162.094 139.95 162.094 140.05V143.78C162.094 144.087 162.151 144.307 162.264 144.44C162.384 144.567 162.547 144.63 162.754 144.63C162.961 144.63 163.144 144.573 163.304 144.46C163.464 144.34 163.591 144.183 163.684 143.99C163.784 143.79 163.834 143.573 163.834 143.34V140.51C163.834 140.39 163.814 140.307 163.774 140.26C163.741 140.213 163.677 140.187 163.584 140.18L163.414 140.16C163.301 140.147 163.244 140.103 163.244 140.03C163.244 139.943 163.307 139.9 163.434 139.9H164.364C164.464 139.9 164.514 139.95 164.514 140.05V143.93C164.514 144.05 164.531 144.133 164.564 144.18C164.604 144.22 164.671 144.247 164.764 144.26L164.974 144.29C165.061 144.297 165.104 144.33 165.104 144.39C165.104 144.45 165.051 144.49 164.944 144.51C164.737 144.537 164.571 144.59 164.444 144.67C164.324 144.75 164.217 144.847 164.124 144.96C164.064 145.02 164.014 145.05 163.974 145.05C163.914 145.05 163.884 145.01 163.884 144.93V144.47C163.884 144.417 163.864 144.387 163.824 144.38C163.791 144.367 163.754 144.38 163.714 144.42C163.467 144.667 163.247 144.84 163.054 144.94C162.867 145.04 162.657 145.09 162.424 145.09ZM166.795 140.54C167.068 140.073 167.398 139.84 167.785 139.84C168.005 139.84 168.168 139.907 168.275 140.04C168.382 140.167 168.435 140.31 168.435 140.47C168.435 140.597 168.402 140.7 168.335 140.78C168.275 140.86 168.178 140.9 168.045 140.9C167.938 140.9 167.858 140.877 167.805 140.83C167.758 140.777 167.718 140.717 167.685 140.65C167.658 140.583 167.625 140.527 167.585 140.48C167.545 140.427 167.478 140.4 167.385 140.4C167.265 140.4 167.152 140.473 167.045 140.62C166.938 140.76 166.848 140.95 166.775 141.19C166.708 141.43 166.675 141.703 166.675 142.01V144.33C166.675 144.47 166.695 144.57 166.735 144.63C166.782 144.69 166.875 144.727 167.015 144.74L167.285 144.77C167.358 144.783 167.395 144.82 167.395 144.88C167.395 144.96 167.345 145 167.245 145H165.555C165.455 145 165.405 144.963 165.405 144.89C165.405 144.83 165.448 144.79 165.535 144.77L165.655 144.75C165.795 144.723 165.885 144.683 165.925 144.63C165.972 144.57 165.995 144.47 165.995 144.33V140.97C165.995 140.85 165.975 140.77 165.935 140.73C165.902 140.683 165.838 140.653 165.745 140.64L165.535 140.61C165.448 140.603 165.405 140.567 165.405 140.5C165.405 140.447 165.458 140.41 165.565 140.39C165.772 140.357 165.928 140.303 166.035 140.23C166.148 140.157 166.265 140.067 166.385 139.96C166.445 139.9 166.495 139.87 166.535 139.87C166.595 139.87 166.625 139.91 166.625 139.99V140.53C166.625 140.577 166.645 140.607 166.685 140.62C166.725 140.627 166.762 140.6 166.795 140.54ZM171.978 145.09C171.844 145.09 171.694 145.077 171.528 145.05C171.368 145.023 171.214 144.99 171.068 144.95C170.928 144.91 170.818 144.867 170.738 144.82C170.691 144.793 170.654 144.767 170.628 144.74C170.608 144.707 170.598 144.653 170.598 144.58L170.548 143.01C170.548 142.877 170.591 142.81 170.678 142.81C170.751 142.81 170.801 142.87 170.828 142.99L170.918 143.37C171.144 144.323 171.568 144.8 172.188 144.8C172.521 144.8 172.784 144.69 172.978 144.47C173.178 144.243 173.278 143.927 173.278 143.52C173.278 143.127 173.174 142.76 172.968 142.42C172.768 142.08 172.444 141.743 171.998 141.41C171.504 141.057 171.144 140.717 170.918 140.39C170.691 140.057 170.578 139.703 170.578 139.33C170.578 138.837 170.748 138.443 171.088 138.15C171.434 137.85 171.874 137.7 172.408 137.7C172.608 137.7 172.801 137.723 172.988 137.77C173.174 137.817 173.328 137.883 173.448 137.97C173.488 137.997 173.518 138.027 173.538 138.06C173.564 138.093 173.578 138.137 173.578 138.19L173.608 139.7C173.608 139.813 173.564 139.87 173.478 139.87C173.418 139.87 173.374 139.823 173.348 139.73L173.278 139.48C173.131 138.967 172.978 138.593 172.818 138.36C172.664 138.12 172.441 138 172.148 138C171.861 138 171.631 138.093 171.458 138.28C171.291 138.467 171.208 138.73 171.208 139.07C171.208 139.357 171.301 139.63 171.488 139.89C171.674 140.15 172.001 140.467 172.468 140.84C172.968 141.247 173.331 141.64 173.558 142.02C173.791 142.393 173.908 142.793 173.908 143.22C173.908 143.593 173.824 143.92 173.658 144.2C173.491 144.48 173.261 144.7 172.968 144.86C172.681 145.013 172.351 145.09 171.978 145.09ZM174.48 145C174.4 145 174.36 144.963 174.36 144.89C174.36 144.823 174.397 144.783 174.47 144.77L174.61 144.75C174.75 144.73 174.84 144.69 174.88 144.63C174.927 144.57 174.95 144.47 174.95 144.33V138.6C174.95 138.48 174.93 138.4 174.89 138.36C174.857 138.313 174.793 138.283 174.7 138.27L174.49 138.24C174.417 138.227 174.38 138.187 174.38 138.12C174.38 138.053 174.417 138.013 174.49 138C174.677 137.96 174.833 137.913 174.96 137.86C175.087 137.807 175.193 137.753 175.28 137.7C175.387 137.633 175.467 137.6 175.52 137.6C175.593 137.6 175.63 137.653 175.63 137.76V141.95C175.63 142.017 175.657 142.06 175.71 142.08C175.77 142.093 175.827 142.07 175.88 142.01L177.05 140.75C177.19 140.597 177.247 140.47 177.22 140.37C177.2 140.263 177.123 140.197 176.99 140.17L176.76 140.13C176.673 140.11 176.63 140.067 176.63 140C176.63 139.933 176.677 139.9 176.77 139.9H178.49C178.583 139.9 178.63 139.937 178.63 140.01C178.63 140.083 178.587 140.123 178.5 140.13L178.41 140.14C178.257 140.153 178.103 140.213 177.95 140.32C177.797 140.42 177.613 140.58 177.4 140.8L176.78 141.46C176.64 141.613 176.607 141.763 176.68 141.91L177.94 144.33C178.013 144.463 178.093 144.56 178.18 144.62C178.267 144.68 178.373 144.723 178.5 144.75L178.6 144.77C178.68 144.79 178.72 144.83 178.72 144.89C178.72 144.963 178.673 145 178.58 145H176.84C176.747 145 176.7 144.963 176.7 144.89C176.7 144.823 176.743 144.783 176.83 144.77L177 144.75C177.253 144.717 177.307 144.553 177.16 144.26L176.21 142.41C176.177 142.343 176.127 142.307 176.06 142.3C176 142.293 175.943 142.317 175.89 142.37L175.78 142.48C175.72 142.54 175.68 142.6 175.66 142.66C175.64 142.72 175.63 142.787 175.63 142.86V144.33C175.63 144.47 175.65 144.57 175.69 144.63C175.737 144.69 175.83 144.727 175.97 144.74L176.24 144.77C176.313 144.783 176.35 144.823 176.35 144.89C176.35 144.963 176.31 145 176.23 145H174.48ZM179.686 138.95C179.546 138.95 179.426 138.9 179.326 138.8C179.233 138.7 179.186 138.573 179.186 138.42C179.186 138.267 179.233 138.143 179.326 138.05C179.426 137.95 179.546 137.9 179.686 137.9C179.826 137.9 179.943 137.95 180.036 138.05C180.129 138.143 180.176 138.267 180.176 138.42C180.176 138.573 180.129 138.7 180.036 138.8C179.943 138.9 179.826 138.95 179.686 138.95ZM178.846 145C178.746 145 178.696 144.963 178.696 144.89C178.696 144.83 178.739 144.79 178.826 144.77L178.946 144.75C179.113 144.723 179.219 144.683 179.266 144.63C179.313 144.57 179.336 144.47 179.336 144.33V140.97C179.336 140.85 179.316 140.77 179.276 140.73C179.243 140.683 179.179 140.653 179.086 140.64L178.876 140.61C178.789 140.603 178.746 140.567 178.746 140.5C178.746 140.447 178.799 140.41 178.906 140.39C179.113 140.357 179.279 140.303 179.406 140.23C179.533 140.157 179.656 140.067 179.776 139.96C179.836 139.9 179.886 139.87 179.926 139.87C179.986 139.87 180.016 139.91 180.016 139.99V144.33C180.016 144.47 180.036 144.57 180.076 144.63C180.116 144.69 180.193 144.727 180.306 144.74L180.556 144.77C180.629 144.783 180.666 144.82 180.666 144.88C180.666 144.96 180.616 145 180.516 145H178.846ZM181.072 145C180.972 145 180.922 144.963 180.922 144.89C180.922 144.83 180.966 144.79 181.052 144.77L181.172 144.75C181.312 144.723 181.402 144.683 181.442 144.63C181.489 144.57 181.512 144.47 181.512 144.33V140.97C181.512 140.85 181.492 140.77 181.452 140.73C181.419 140.683 181.356 140.653 181.262 140.64L181.052 140.61C180.966 140.603 180.922 140.567 180.922 140.5C180.922 140.447 180.976 140.41 181.082 140.39C181.289 140.357 181.446 140.303 181.552 140.23C181.666 140.157 181.782 140.067 181.902 139.96C181.962 139.9 182.012 139.87 182.052 139.87C182.112 139.87 182.142 139.91 182.142 139.99V140.44C182.142 140.5 182.162 140.54 182.202 140.56C182.249 140.573 182.299 140.553 182.352 140.5C182.619 140.247 182.852 140.073 183.052 139.98C183.259 139.887 183.476 139.84 183.702 139.84C184.002 139.84 184.242 139.947 184.422 140.16C184.602 140.367 184.692 140.673 184.692 141.08V144.33C184.692 144.47 184.712 144.57 184.752 144.63C184.799 144.683 184.892 144.72 185.032 144.74L185.252 144.77C185.326 144.783 185.362 144.823 185.362 144.89C185.362 144.963 185.322 145 185.242 145H183.562C183.469 145 183.422 144.963 183.422 144.89C183.422 144.823 183.459 144.783 183.532 144.77L183.672 144.75C183.812 144.73 183.902 144.69 183.942 144.63C183.989 144.57 184.012 144.47 184.012 144.33V141.19C184.012 140.863 183.952 140.633 183.832 140.5C183.712 140.367 183.542 140.3 183.322 140.3C183.109 140.3 182.916 140.363 182.742 140.49C182.576 140.61 182.442 140.773 182.342 140.98C182.242 141.18 182.192 141.403 182.192 141.65V144.33C182.192 144.47 182.212 144.57 182.252 144.63C182.299 144.69 182.392 144.727 182.532 144.74L182.802 144.77C182.876 144.783 182.912 144.82 182.912 144.88C182.912 144.96 182.862 145 182.762 145H181.072ZM187.27 145.09C186.976 145.09 186.71 144.993 186.47 144.8C186.236 144.6 186.05 144.317 185.91 143.95C185.77 143.583 185.7 143.147 185.7 142.64C185.7 142.073 185.783 141.58 185.95 141.16C186.123 140.74 186.356 140.417 186.65 140.19C186.943 139.957 187.27 139.84 187.63 139.84C187.936 139.84 188.176 139.9 188.35 140.02C188.416 140.067 188.45 140.14 188.45 140.24L188.47 141.46C188.47 141.56 188.43 141.61 188.35 141.61C188.276 141.61 188.23 141.567 188.21 141.48C188.116 141.113 188.026 140.83 187.94 140.63C187.853 140.43 187.763 140.293 187.67 140.22C187.576 140.14 187.473 140.1 187.36 140.1C187.226 140.1 187.086 140.177 186.94 140.33C186.8 140.483 186.68 140.733 186.58 141.08C186.486 141.42 186.44 141.87 186.44 142.43C186.44 143.143 186.53 143.68 186.71 144.04C186.896 144.4 187.136 144.58 187.43 144.58C187.663 144.58 187.856 144.483 188.01 144.29C188.17 144.097 188.306 143.747 188.42 143.24C188.44 143.167 188.48 143.13 188.54 143.13C188.62 143.13 188.65 143.197 188.63 143.33C188.556 143.797 188.453 144.16 188.32 144.42C188.193 144.673 188.04 144.85 187.86 144.95C187.686 145.043 187.49 145.09 187.27 145.09ZM190.058 145.09C189.778 145.09 189.548 145.003 189.368 144.83C189.188 144.65 189.098 144.413 189.098 144.12C189.098 143.833 189.188 143.563 189.368 143.31C189.548 143.05 189.795 142.817 190.108 142.61C190.422 142.403 190.778 142.237 191.178 142.11C191.265 142.083 191.308 142.027 191.308 141.94V141.03C191.308 140.71 191.258 140.483 191.158 140.35C191.058 140.21 190.922 140.14 190.748 140.14C190.582 140.14 190.428 140.217 190.288 140.37C190.155 140.517 190.058 140.767 189.998 141.12C189.965 141.333 189.892 141.49 189.778 141.59C189.672 141.683 189.562 141.73 189.448 141.73C189.262 141.73 189.168 141.637 189.168 141.45C189.168 141.257 189.222 141.067 189.328 140.88C189.442 140.687 189.588 140.513 189.768 140.36C189.948 140.2 190.145 140.073 190.358 139.98C190.572 139.887 190.785 139.84 190.998 139.84C191.658 139.84 191.988 140.223 191.988 140.99V144.05C191.988 144.33 192.058 144.47 192.198 144.47C192.285 144.47 192.365 144.413 192.438 144.3C192.512 144.18 192.548 143.98 192.548 143.7C192.548 143.593 192.592 143.54 192.678 143.54C192.758 143.54 192.798 143.597 192.798 143.71C192.798 144.197 192.712 144.55 192.538 144.77C192.372 144.983 192.182 145.09 191.968 145.09C191.808 145.09 191.682 145.027 191.588 144.9C191.495 144.767 191.432 144.61 191.398 144.43C191.392 144.363 191.362 144.33 191.308 144.33C191.262 144.323 191.215 144.353 191.168 144.42C191.008 144.64 190.845 144.807 190.678 144.92C190.512 145.033 190.305 145.09 190.058 145.09ZM190.328 144.63C190.502 144.63 190.662 144.57 190.808 144.45C190.955 144.323 191.075 144.157 191.168 143.95C191.262 143.743 191.308 143.51 191.308 143.25V142.52C191.308 142.393 191.238 142.357 191.098 142.41C190.692 142.557 190.375 142.76 190.148 143.02C189.928 143.273 189.818 143.58 189.818 143.94C189.818 144.4 189.988 144.63 190.328 144.63ZM194.393 140.54C194.666 140.073 194.996 139.84 195.383 139.84C195.603 139.84 195.766 139.907 195.873 140.04C195.979 140.167 196.033 140.31 196.033 140.47C196.033 140.597 195.999 140.7 195.933 140.78C195.873 140.86 195.776 140.9 195.643 140.9C195.536 140.9 195.456 140.877 195.403 140.83C195.356 140.777 195.316 140.717 195.283 140.65C195.256 140.583 195.223 140.527 195.183 140.48C195.143 140.427 195.076 140.4 194.983 140.4C194.863 140.4 194.749 140.473 194.643 140.62C194.536 140.76 194.446 140.95 194.373 141.19C194.306 141.43 194.273 141.703 194.273 142.01V144.33C194.273 144.47 194.293 144.57 194.333 144.63C194.379 144.69 194.473 144.727 194.613 144.74L194.883 144.77C194.956 144.783 194.993 144.82 194.993 144.88C194.993 144.96 194.943 145 194.843 145H193.153C193.053 145 193.003 144.963 193.003 144.89C193.003 144.83 193.046 144.79 193.133 144.77L193.253 144.75C193.393 144.723 193.483 144.683 193.523 144.63C193.569 144.57 193.593 144.47 193.593 144.33V140.97C193.593 140.85 193.573 140.77 193.533 140.73C193.499 140.683 193.436 140.653 193.343 140.64L193.133 140.61C193.046 140.603 193.003 140.567 193.003 140.5C193.003 140.447 193.056 140.41 193.163 140.39C193.369 140.357 193.526 140.303 193.633 140.23C193.746 140.157 193.863 140.067 193.983 139.96C194.043 139.9 194.093 139.87 194.133 139.87C194.193 139.87 194.223 139.91 194.223 139.99V140.53C194.223 140.577 194.243 140.607 194.283 140.62C194.323 140.627 194.359 140.6 194.393 140.54ZM197.956 145.09C197.636 145.09 197.349 144.983 197.096 144.77C196.843 144.557 196.639 144.257 196.486 143.87C196.339 143.477 196.266 143.023 196.266 142.51C196.266 141.983 196.343 141.52 196.496 141.12C196.649 140.72 196.859 140.407 197.126 140.18C197.393 139.953 197.689 139.84 198.016 139.84C198.409 139.84 198.726 140.003 198.966 140.33C199.213 140.65 199.336 141.173 199.336 141.9C199.336 142.12 199.253 142.23 199.086 142.23H197.186C197.053 142.23 196.986 142.307 196.986 142.46C196.986 143.167 197.089 143.697 197.296 144.05C197.503 144.403 197.766 144.58 198.086 144.58C198.339 144.58 198.546 144.49 198.706 144.31C198.866 144.13 198.996 143.827 199.096 143.4C199.116 143.327 199.159 143.29 199.226 143.29C199.306 143.29 199.336 143.357 199.316 143.49C199.209 144.083 199.039 144.5 198.806 144.74C198.573 144.973 198.289 145.09 197.956 145.09ZM197.156 141.98H198.166C198.486 141.98 198.646 141.813 198.646 141.48C198.646 141.047 198.593 140.707 198.486 140.46C198.379 140.213 198.219 140.09 198.006 140.09C197.746 140.09 197.526 140.24 197.346 140.54C197.173 140.84 197.059 141.267 197.006 141.82C196.993 141.927 197.043 141.98 197.156 141.98ZM205.58 145.09C205.473 145.09 205.383 145.01 205.31 144.85L202.6 138.97C202.58 138.923 202.553 138.903 202.52 138.91C202.493 138.917 202.48 138.947 202.48 139V144.14C202.48 144.327 202.51 144.47 202.57 144.57C202.637 144.663 202.753 144.723 202.92 144.75L203.05 144.77C203.137 144.777 203.18 144.817 203.18 144.89C203.18 144.963 203.13 145 203.03 145H201.6C201.5 145 201.45 144.963 201.45 144.89C201.45 144.817 201.493 144.777 201.58 144.77L201.71 144.75C201.883 144.723 202.003 144.663 202.07 144.57C202.137 144.47 202.17 144.327 202.17 144.14V138.46C202.17 138.32 202.147 138.227 202.1 138.18C202.06 138.133 201.963 138.097 201.81 138.07L201.58 138.03C201.493 138.01 201.45 137.97 201.45 137.91C201.45 137.837 201.5 137.8 201.6 137.8H202.67C202.837 137.8 202.953 137.873 203.02 138.02L205.38 143.21C205.4 143.25 205.423 143.267 205.45 143.26C205.483 143.253 205.5 143.23 205.5 143.19V138.66C205.5 138.447 205.463 138.3 205.39 138.22C205.317 138.133 205.223 138.08 205.11 138.06L204.93 138.03C204.843 138.01 204.8 137.97 204.8 137.91C204.8 137.837 204.85 137.8 204.95 137.8H206.38C206.48 137.8 206.53 137.837 206.53 137.91C206.53 137.983 206.487 138.023 206.4 138.03L206.27 138.05C206.097 138.077 205.977 138.133 205.91 138.22C205.843 138.3 205.81 138.447 205.81 138.66V144.77C205.81 144.89 205.787 144.973 205.74 145.02C205.7 145.067 205.647 145.09 205.58 145.09ZM208.435 145.09C208.115 145.09 207.828 144.983 207.575 144.77C207.321 144.557 207.118 144.257 206.965 143.87C206.818 143.477 206.745 143.023 206.745 142.51C206.745 141.983 206.821 141.52 206.975 141.12C207.128 140.72 207.338 140.407 207.605 140.18C207.871 139.953 208.168 139.84 208.495 139.84C208.888 139.84 209.205 140.003 209.445 140.33C209.691 140.65 209.815 141.173 209.815 141.9C209.815 142.12 209.731 142.23 209.565 142.23H207.665C207.531 142.23 207.465 142.307 207.465 142.46C207.465 143.167 207.568 143.697 207.775 144.05C207.981 144.403 208.245 144.58 208.565 144.58C208.818 144.58 209.025 144.49 209.185 144.31C209.345 144.13 209.475 143.827 209.575 143.4C209.595 143.327 209.638 143.29 209.705 143.29C209.785 143.29 209.815 143.357 209.795 143.49C209.688 144.083 209.518 144.5 209.285 144.74C209.051 144.973 208.768 145.09 208.435 145.09ZM207.635 141.98H208.645C208.965 141.98 209.125 141.813 209.125 141.48C209.125 141.047 209.071 140.707 208.965 140.46C208.858 140.213 208.698 140.09 208.485 140.09C208.225 140.09 208.005 140.24 207.825 140.54C207.651 140.84 207.538 141.267 207.485 141.82C207.471 141.927 207.521 141.98 207.635 141.98ZM211.989 145.09C211.669 145.09 211.383 144.983 211.129 144.77C210.876 144.557 210.673 144.257 210.519 143.87C210.373 143.477 210.299 143.023 210.299 142.51C210.299 141.983 210.376 141.52 210.529 141.12C210.683 140.72 210.893 140.407 211.159 140.18C211.426 139.953 211.723 139.84 212.049 139.84C212.443 139.84 212.759 140.003 212.999 140.33C213.246 140.65 213.369 141.173 213.369 141.9C213.369 142.12 213.286 142.23 213.119 142.23H211.219C211.086 142.23 211.019 142.307 211.019 142.46C211.019 143.167 211.123 143.697 211.329 144.05C211.536 144.403 211.799 144.58 212.119 144.58C212.373 144.58 212.579 144.49 212.739 144.31C212.899 144.13 213.029 143.827 213.129 143.4C213.149 143.327 213.193 143.29 213.259 143.29C213.339 143.29 213.369 143.357 213.349 143.49C213.243 144.083 213.073 144.5 212.839 144.74C212.606 144.973 212.323 145.09 211.989 145.09ZM211.189 141.98H212.199C212.519 141.98 212.679 141.813 212.679 141.48C212.679 141.047 212.626 140.707 212.519 140.46C212.413 140.213 212.253 140.09 212.039 140.09C211.779 140.09 211.559 140.24 211.379 140.54C211.206 140.84 211.093 141.267 211.039 141.82C211.026 141.927 211.076 141.98 211.189 141.98ZM215.434 145.09C215.141 145.09 214.877 144.99 214.644 144.79C214.417 144.583 214.241 144.3 214.114 143.94C213.987 143.573 213.924 143.15 213.924 142.67C213.924 142.11 214.011 141.62 214.184 141.2C214.357 140.773 214.597 140.44 214.904 140.2C215.211 139.96 215.557 139.84 215.944 139.84C216.037 139.84 216.131 139.85 216.224 139.87C216.317 139.883 216.407 139.91 216.494 139.95C216.601 140.003 216.654 139.98 216.654 139.88V138.6C216.654 138.48 216.634 138.397 216.594 138.35C216.561 138.303 216.497 138.277 216.404 138.27L216.144 138.24C216.071 138.227 216.034 138.187 216.034 138.12C216.034 138.053 216.071 138.013 216.144 138C216.357 137.96 216.527 137.913 216.654 137.86C216.787 137.807 216.897 137.753 216.984 137.7C217.091 137.633 217.171 137.6 217.224 137.6C217.297 137.6 217.334 137.653 217.334 137.76V144.05C217.334 144.33 217.404 144.47 217.544 144.47C217.631 144.47 217.711 144.413 217.784 144.3C217.857 144.18 217.894 143.98 217.894 143.7C217.894 143.593 217.937 143.54 218.024 143.54C218.104 143.54 218.144 143.597 218.144 143.71C218.144 144.197 218.061 144.55 217.894 144.77C217.727 144.983 217.537 145.09 217.324 145.09C217.131 145.09 216.984 145.027 216.884 144.9C216.784 144.767 216.717 144.61 216.684 144.43C216.677 144.377 216.654 144.35 216.614 144.35C216.574 144.343 216.537 144.367 216.504 144.42C216.317 144.68 216.147 144.857 215.994 144.95C215.841 145.043 215.654 145.09 215.434 145.09ZM215.654 144.63C215.827 144.63 215.987 144.573 216.134 144.46C216.287 144.34 216.411 144.18 216.504 143.98C216.604 143.78 216.654 143.557 216.654 143.31V141.06C216.654 140.76 216.584 140.523 216.444 140.35C216.311 140.177 216.134 140.09 215.914 140.09C215.541 140.09 215.237 140.31 215.004 140.75C214.777 141.183 214.664 141.777 214.664 142.53C214.664 143.217 214.751 143.74 214.924 144.1C215.104 144.453 215.347 144.63 215.654 144.63ZM219.504 145.09C219.351 145.09 219.188 145.07 219.014 145.03C218.841 144.997 218.701 144.953 218.594 144.9C218.534 144.867 218.504 144.81 218.504 144.73L218.474 143.61C218.474 143.497 218.518 143.44 218.604 143.44C218.678 143.44 218.728 143.493 218.754 143.6C218.868 144.073 219.004 144.397 219.164 144.57C219.331 144.743 219.531 144.83 219.764 144.83C219.958 144.83 220.118 144.757 220.244 144.61C220.371 144.457 220.434 144.247 220.434 143.98C220.434 143.713 220.361 143.477 220.214 143.27C220.068 143.063 219.821 142.837 219.474 142.59C219.128 142.357 218.874 142.123 218.714 141.89C218.554 141.65 218.474 141.39 218.474 141.11C218.474 140.73 218.608 140.423 218.874 140.19C219.141 139.957 219.494 139.84 219.934 139.84C220.068 139.84 220.198 139.857 220.324 139.89C220.451 139.917 220.564 139.963 220.664 140.03C220.724 140.07 220.754 140.123 220.754 140.19L220.774 141.29C220.774 141.39 220.734 141.44 220.654 141.44C220.608 141.44 220.574 141.427 220.554 141.4C220.534 141.367 220.518 141.327 220.504 141.28C220.371 140.847 220.238 140.547 220.104 140.38C219.971 140.207 219.808 140.12 219.614 140.12C219.441 140.12 219.298 140.18 219.184 140.3C219.071 140.42 219.014 140.57 219.014 140.75C219.014 140.983 219.084 141.187 219.224 141.36C219.364 141.533 219.618 141.747 219.984 142C220.318 142.24 220.568 142.5 220.734 142.78C220.908 143.053 220.994 143.353 220.994 143.68C220.994 144.107 220.858 144.45 220.584 144.71C220.311 144.963 219.951 145.09 219.504 145.09Z" fill="white"/>
</svg>
